<?xml version="1.0" encoding="utf-8"?>
<!-- Generator: Adobe Illustrator 18.1.0, SVG Export Plug-In . SVG Version: 6.00 Build 0)  -->
<svg version="1.1" id="Layer_1" xmlns="http://www.w3.org/2000/svg" xmlns:xlink="http://www.w3.org/1999/xlink" x="0px" y="0px"
	 viewBox="0 0 612 792" enable-background="new 0 0 612 792" xml:space="preserve">
<g id="Layer_2">
	<polygon fill="#FFFFFF" stroke="#000000" stroke-miterlimit="10" points="181.1,241.8 181.2,266 191.4,265.9 174.3,283.1 
		157.8,266.6 166.9,266.6 166.7,241.8 	"/>
	<polygon fill="#FFFFFF" stroke="#000000" stroke-miterlimit="10" points="181.1,341.8 181.2,366 191.4,366 174.3,383.2 
		157.8,366.7 166.9,366.7 166.7,341.9 	"/>
	<polygon fill="#FFFFFF" stroke="#000000" stroke-miterlimit="10" points="181.1,462.3 181.2,486.5 191.4,486.5 174.3,503.7 
		157.8,487.2 166.9,487.2 166.7,462.4 	"/>
	<polygon fill="#FFFFFF" stroke="#000000" stroke-miterlimit="10" points="103.8,440.9 56.3,440.8 56.2,451 39.2,433.7 55.8,417.4 
		55.7,426.5 104,426.6 	"/>
	<polygon fill="#FFFFFF" stroke="#000000" stroke-linecap="round" stroke-miterlimit="10" points="18.9,315.7 70.4,315.8 
		70.4,305.7 87.6,322.7 71.1,339.3 71.1,330.2 34.6,330.3 34.6,330.3 35,596.5 166.9,596.5 166.9,576.8 183.1,576.7 183.1,611.7 
		18.9,611.7 	"/>
	<polygon fill="#FFFFFF" stroke="#000000" stroke-linecap="round" stroke-miterlimit="10" points="312.1,337.4 288.9,337.3 
		288.9,347.4 271.8,330.3 288.3,313.9 288.3,323 311.4,323.1 311.4,313 328.6,330 312.1,346.5 	"/>
</g>
<g id="Layer_1_1_">
	<path fill="#F89E20" stroke="#000000" stroke-miterlimit="10" d="M247.3,249.1H101.8c-6,0-10.9-4.9-10.9-10.9v-49.1
		c0-6,4.9-10.9,10.9-10.9h145.5c6,0,10.9,4.9,10.9,10.9v49.1C258.3,244.2,253.3,249.1,247.3,249.1z"/>
	<path fill="#7F6DB1" stroke="#000000" stroke-miterlimit="10" d="M247.3,358.9H101.8c-6,0-10.9-4.9-10.9-10.9v-49.1
		c0-6,4.9-10.9,10.9-10.9h145.5c6,0,10.9,4.9,10.9,10.9V348C258.3,354,253.3,358.9,247.3,358.9z"/>
	<path fill="#44B1E4" stroke="#000000" stroke-miterlimit="10" d="M247.3,578.3H101.8c-6,0-10.9-4.9-10.9-10.9v-49.1
		c0-6,4.9-10.9,10.9-10.9h145.5c6,0,10.9,4.9,10.9,10.9v49.1C258.3,573.4,253.3,578.3,247.3,578.3z"/>
	<polygon fill="#52BE97" stroke="#000000" stroke-miterlimit="10" points="132.8,480.2 90.9,433.4 132.8,386.5 216.4,386.5 
		258.3,433.4 216.4,480.2 	"/>
	<path fill="#E9E9E9" stroke="#000000" stroke-miterlimit="10" d="M447.4,427.4c0,0-36.6-10.8-54.6,16.4
		c-23.6,35.8-54.6,16.4-54.6,16.4V323.4h109.1V427.4z"/>
	<polygon fill="#EF5558" stroke="#000000" stroke-miterlimit="10" points="596.4,287.4 493,322.3 497.6,336.2 466.5,320.7 
		481.3,290.8 485.5,303.2 589.7,267.9 	"/>
	<polygon fill="#EF5558" stroke="#000000" stroke-miterlimit="10" points="600.2,387.4 491.1,387.4 491.1,401.9 466.5,377.4 
		490.1,353.7 490.1,366.7 600.2,366.7 	"/>
	<polygon fill="#EF5558" stroke="#000000" stroke-miterlimit="10" points="591.7,486.7 488.4,451.5 483.7,465.3 468.3,434.1 
		498.3,419.4 494.1,431.6 598.4,467.1 	"/>
</g>
<g id="Layer_3">
	<rect x="112.8" y="196.4" fill="none" width="124.6" height="59.1"/>
	<text transform="matrix(1 0 0 1 123.1641 208.1441)" fill="#FFFFFF" font-family="'OpenSans-Semibold'" font-size="15.4591">Parse Markup </text>
	<text transform="matrix(1 0 0 1 113.6157 226.6948)" fill="#FFFFFF" font-family="'OpenSans-Semibold'" font-size="15.4591">and Set Up DOM</text>
	<rect x="107.3" y="306.6" fill="none" width="135.5" height="59.1"/>
	<text transform="matrix(1 0 0 1 116.8233 318.3247)" fill="#FFFFFF" font-family="'OpenSans-Semibold'" font-size="15.4591">Check for Event </text>
	<text transform="matrix(1 0 0 1 109.6396 336.8755)" fill="#FFFFFF" font-family="'OpenSans-Semibold'" font-size="15.4591">at Head of Queue</text>
	<rect x="107.3" y="425.6" fill="none" width="135.5" height="59.1"/>
	<text transform="matrix(1 0 0 1 124.4473 437.3291)" fill="#FFFFFF" font-family="'OpenSans-Semibold'" font-size="15.4591">Is There One?</text>
	<rect x="107.3" y="535.9" fill="none" width="135.5" height="29.6"/>
	<text transform="matrix(1 0 0 1 123.5791 547.5889)" fill="#FFFFFF" font-family="'OpenSans-Semibold'" font-size="15.4591">Process Event</text>
	<rect x="184.9" y="486.5" fill="none" width="53.1" height="29.6"/>
	<text transform="matrix(1 0 0 1 198.6357 498.2559)" fill="#939598" font-family="'OpenSans-Semibold'" font-size="15.4591">Yes</text>
	<rect x="54.2" y="410.8" fill="none" width="53.1" height="29.6"/>
	<text transform="matrix(1 0 0 1 69.9766 422.5518)" fill="#939598" font-family="'OpenSans-Semibold'" font-size="15.4591">No</text>
	<rect x="338.3" y="332.7" fill="none" width="109.1" height="53.7"/>
	<text transform="matrix(1 0 0 1 367.0899 347.207)" font-family="'OpenSans-Semibold'" font-size="19.0966">Event </text>
	<text transform="matrix(1 0 0 1 362.1787 370.123)" font-family="'OpenSans-Semibold'" font-size="19.0966">Queue</text>
	
		<text transform="matrix(0.948 0.3182 -0.3182 0.948 477.8582 442.3364)" fill="#FFFFFF" font-family="'OpenSans-Semibold'" font-size="15.4588">Network Events</text>
	
		<text transform="matrix(0.9455 -0.3255 0.3255 0.9455 500.1199 314.9495)" fill="#FFFFFF" font-family="'OpenSans-Semibold'" font-size="15.46">Mouse Clicks</text>
	
		<text transform="matrix(1 -7.070674e-03 7.070674e-03 1 503.1815 381.8865)" fill="#FFFFFF" font-family="'OpenSans-Semibold'" font-size="15.4595">Keypresses</text>
</g>
</svg>
